 <svg version="1.0" xmlns="http://www.w3.org/2000/svg" width="700.000000pt" height="233.000000pt" viewBox="0 0 700.000000 233.000000" preserveAspectRatio="xMidYMid meet">
<metadata>
Created by potrace 1.12, written by Peter Selinger 2001-2015
</metadata>
<g transform="translate(0.000000,233.000000) scale(0.100000,-0.100000)" fill="#FD461E" stroke="none">
<path d="M1100 1801 c-81 -26 -145 -88 -176 -167 -18 -45 -19 -81 -19 -489 l0
-440 33 -68 c53 -107 126 -149 267 -150 143 -2 226 42 280 148 l30 59 3 434
c3 478 1 499 -57 578 -17 22 -54 53 -83 69 -47 26 -64 30 -153 32 -55 1 -111
-1 -125 -6z m182 -199 c11 -10 23 -37 28 -58 12 -51 12 -737 0 -789 -5 -23
-21 -50 -36 -64 -38 -32 -108 -25 -141 14 l-23 26 0 412 c1 441 1 445 51 474
31 18 96 10 121 -15z"></path>
<path d="M170 1151 l0 -651 100 0 100 0 2 262 3 263 62 0 c75 0 112 -23 130
-81 7 -23 12 -110 12 -210 1 -94 4 -186 7 -203 l7 -31 104 0 c105 0 105 0 98
23 -4 12 -10 121 -13 242 -7 210 -8 223 -32 270 -15 29 -41 60 -63 74 l-36 24
38 27 c22 16 49 49 62 77 21 42 24 65 28 183 2 80 -2 156 -9 187 -16 75 -60
129 -128 161 -55 26 -64 27 -264 30 l-208 4 0 -651z m369 440 c28 -28 41 -84
41 -171 -1 -149 -27 -192 -122 -204 -92 -12 -88 -21 -88 200 l0 194 75 0 c61
0 79 -4 94 -19z"></path>
<path d="M1650 1150 l0 -651 218 3 c215 3 218 3 275 31 112 56 141 122 141
332 1 146 0 152 -28 209 -20 40 -42 68 -72 89 l-43 30 33 24 c21 13 46 46 63
80 26 54 28 67 28 173 0 176 -37 254 -145 304 -40 19 -67 21 -257 24 l-213 4
0 -652z m377 436 c28 -24 28 -26 28 -140 0 -113 -1 -116 -28 -143 -25 -25 -35
-28 -95 -28 l-67 0 -3 168 -2 167 69 0 c59 0 74 -4 98 -24z m1 -522 c42 -29
52 -65 52 -193 0 -113 -1 -121 -25 -149 -21 -25 -34 -31 -90 -37 -111 -12
-105 -24 -105 201 l0 194 73 0 c50 0 80 -5 95 -16z"></path>
<path d="M2410 1151 l0 -651 198 0 c245 0 285 9 354 81 68 70 81 121 76 307
-3 127 -6 152 -25 188 -21 39 -77 96 -105 107 -9 3 -1 15 25 37 63 54 80 99
85 224 7 189 -28 274 -136 324 -55 26 -64 27 -264 30 l-208 4 0 -651z m375
435 c16 -16 25 -40 30 -81 8 -63 0 -157 -16 -186 -16 -30 -64 -49 -124 -49
l-55 0 0 170 0 170 70 0 c61 0 74 -3 95 -24z m10 -528 c14 -13 30 -41 35 -63
13 -54 12 -191 -1 -238 -14 -52 -43 -67 -130 -70 l-74 -2 -3 198 -2 197 74 0
c63 0 79 -4 101 -22z"></path>
<path d="M3165 1788 c-3 -7 -4 -299 -3 -648 l3 -635 103 -3 102 -3 0 651 0
650 -100 0 c-71 0 -102 -4 -105 -12z"></path>
<path d="M3520 1150 l0 -650 280 0 281 0 -3 91 -3 91 -163 -1 c-112 -1 -168 2
-178 10 -11 9 -14 49 -14 190 l0 178 143 3 142 3 0 90 0 90 -140 5 -140 5 0
175 0 175 175 5 175 5 3 93 3 92 -281 0 -280 0 0 -650z"></path>
<path d="M4490 1151 l0 -651 105 0 105 0 0 245 0 245 83 0 c114 0 178 21 232
74 68 69 80 117 80 331 0 207 -11 258 -72 320 -69 71 -102 79 -330 83 l-203 4
0 -651z m375 434 c25 -24 25 -27 25 -189 0 -158 -1 -166 -23 -192 -20 -23 -33
-27 -95 -32 l-72 -5 0 222 0 221 70 0 c62 0 74 -3 95 -25z"></path>
<path d="M5190 1150 l0 -650 105 0 105 0 0 650 0 650 -105 0 -105 0 0 -650z"></path>
<path d="M5550 1150 l0 -650 100 0 100 0 0 195 0 196 31 61 c22 44 33 57 39
47 4 -8 49 -123 100 -257 l93 -242 104 0 c96 0 105 2 100 18 -2 9 -66 171
-140 359 l-136 342 139 285 c77 157 140 288 140 291 0 3 -46 4 -102 3 l-101
-3 -124 -265 c-68 -146 -128 -269 -134 -274 -5 -6 -9 94 -9 267 l0 277 -100 0
-100 0 0 -650z"></path>
<path d="M6320 1150 l0 -650 280 0 280 0 0 90 0 90 -164 0 c-90 0 -171 3 -180
6 -14 5 -16 32 -16 190 l0 183 138 3 137 3 3 92 3 92 -138 3 -138 3 -3 177 -2
178 177 2 178 3 3 93 3 92 -281 0 -280 0 0 -650z"></path>
</g>
</svg>